<svg width="50" height="50" viewBox="0 0 50 50" fill="none" xmlns="http://www.w3.org/2000/svg">
<path d="M47.4999 0H2.49999C1.11927 0 0 1.11899 0 2.49938C0 3.87977 1.11927 4.99876 2.49999 4.99876H13.3333V11.9137C3.80083 18.3555 1.29646 31.3033 7.73978 40.8335C14.1831 50.3638 27.1341 52.8674 36.6667 46.4257C46.1993 39.984 48.7035 27.0361 42.2603 17.506C40.7701 15.3018 38.8714 13.4036 36.6667 11.9137V4.99876H47.5C48.8807 4.99876 50 3.87977 50 2.49938C50 1.11899 48.8806 0 47.4999 0ZM44.1666 29.1594C44.1666 39.7422 35.5853 48.3214 24.9999 48.3214C14.4146 48.3214 5.83332 39.7422 5.83332 29.1594C5.83332 18.5767 14.4146 9.99752 24.9999 9.99752C35.5807 10.009 44.1551 18.5813 44.1666 29.1594ZM15 10.894V4.99876H34.9999V10.894C28.7714 7.477 21.2286 7.477 15 10.894ZM47.4999 3.33251H2.49999C2.03979 3.33251 1.66666 2.95948 1.66666 2.49938C1.66666 2.03929 2.03979 1.66625 2.49999 1.66625H47.4999C47.9601 1.66625 48.3332 2.03929 48.3332 2.49938C48.3332 2.95948 47.9602 3.33251 47.4999 3.33251Z" fill="#5BDDF9"/>
<path d="M15 23.3274V29.9924C15.0032 32.981 16.4653 35.78 18.9167 37.4905H15C13.6193 37.4905 12.5 38.6095 12.5 39.9899C12.5 41.3703 13.6193 42.4893 15 42.4893H35C36.3807 42.4893 37.4999 41.3703 37.4999 39.9899C37.4999 38.6095 36.3807 37.4905 35 37.4905H31.0875C33.2953 35.9461 34.7108 33.5081 34.9575 30.8255H35.8333C38.1344 30.8255 39.9999 28.9605 39.9999 26.6599C39.9999 24.3593 38.1344 22.4943 35.8333 22.4943H34.8466C34.4947 21.4992 33.5556 20.8324 32.5 20.828H17.5C16.1193 20.828 15 21.947 15 23.3274ZM35 24.1605H35.8333C37.214 24.1605 38.3333 25.2795 38.3333 26.6599C38.3333 28.0403 37.214 29.1593 35.8333 29.1593H35V24.1605ZM35 39.1568C35.4602 39.1568 35.8333 39.5298 35.8333 39.9899C35.8333 40.45 35.4602 40.8231 35 40.8231H15C14.5398 40.8231 14.1667 40.45 14.1667 39.9899C14.1667 39.5298 14.5398 39.1568 15 39.1568H35ZM33.3333 23.3274V29.9924C33.3287 34.1316 29.9735 37.486 25.8333 37.4905H24.1666C20.0264 37.486 16.6712 34.1316 16.6667 29.9924V23.3274C16.6667 22.8673 17.0398 22.4943 17.5 22.4943H32.5C32.9603 22.4943 33.3333 22.8673 33.3333 23.3274Z" fill="#5BDDF9"/>
<path d="M26.2332 12.4969H24.5666C24.5719 12.7285 24.4846 12.9525 24.3241 13.1193C23.5814 14.0552 23.5814 15.3793 24.3241 16.3152C24.6494 16.6682 24.6494 17.2118 24.3241 17.5649C23.9569 18.0156 23.7596 18.5808 23.7666 19.162H25.4332C25.4275 18.9297 25.5151 18.705 25.6766 18.538C26.419 17.6013 26.419 16.2771 25.6766 15.3404C25.3504 14.9877 25.3504 14.4434 25.6766 14.0907C26.0436 13.6414 26.2406 13.0771 26.2332 12.4969Z" fill="#5BDDF9"/>
<path d="M18.7666 19.162H20.4333C20.4275 18.9297 20.5151 18.705 20.6766 18.538C21.419 17.6013 21.419 16.2771 20.6766 15.3404C20.3504 14.9877 20.3504 14.4434 20.6766 14.0907C21.0436 13.6414 21.2407 13.0771 21.2333 12.4969H19.5666C19.5719 12.7285 19.4846 12.9525 19.3241 13.1193C18.5814 14.0552 18.5814 15.3793 19.3241 16.3152C19.6494 16.6682 19.6494 17.2118 19.3241 17.5649C18.957 18.0156 18.7596 18.5808 18.7666 19.162Z" fill="#5BDDF9"/>
<path d="M28.7666 19.162H30.4333C30.4276 18.9297 30.5152 18.705 30.6766 18.538C31.419 17.6013 31.419 16.2771 30.6766 15.3404C30.3505 14.9877 30.3505 14.4434 30.6766 14.0907C31.0436 13.6414 31.2407 13.0771 31.2333 12.4969H29.5666C29.5719 12.7285 29.4846 12.9525 29.3241 13.1193C28.5814 14.0552 28.5814 15.3793 29.3241 16.3152C29.6494 16.6682 29.6494 17.2118 29.3241 17.5649C28.957 18.0156 28.7596 18.5808 28.7666 19.162Z" fill="#5BDDF9"/>
</svg>
