<svg width="50" height="50" viewBox="0 0 50 50" fill="none" xmlns="http://www.w3.org/2000/svg">
<path d="M35.4067 16.8518L34.8717 15.0909C34.1921 13.0907 32.0197 12.0202 30.0195 12.6998C28.8943 13.0821 28.0106 13.9657 27.6283 15.0909L27.0933 16.8518C26.6431 18.3368 26.5486 19.9069 26.8175 21.4351C27.0627 22.7218 27.8796 23.8272 29.0375 24.4393L28.4383 37.8334C28.3581 38.581 28.6006 39.3274 29.105 39.8851C30.1897 41.0716 32.0309 41.1541 33.2174 40.0694C33.2816 40.0107 33.343 39.9493 33.4017 39.8851C33.8948 39.3432 34.1369 38.6188 34.0683 37.8893L33.4658 24.4376C34.6222 23.8252 35.4377 22.7205 35.6825 21.4351C35.9514 19.9069 35.8569 18.3368 35.4067 16.8518ZM34.0408 21.1451C33.8604 22.0695 33.2017 22.8279 32.3117 23.1359C31.9739 23.2629 31.7563 23.5929 31.7725 23.9534L32.4058 38.0209C32.435 38.2969 32.344 38.572 32.1558 38.7759C31.6541 39.2727 30.8459 39.2727 30.3442 38.7759C30.1467 38.5555 30.057 38.2589 30.0992 37.9659L30.7275 23.9534C30.7438 23.5929 30.5261 23.2629 30.1883 23.1359C29.2983 22.8279 28.6396 22.0695 28.4592 21.1451C28.2363 19.8764 28.3148 18.5729 28.6883 17.3401L29.2233 15.5784C29.6373 14.4592 30.8802 13.8874 31.9996 14.3014C32.5914 14.5202 33.0578 14.9868 33.2767 15.5784L33.8117 17.3401C34.1848 18.573 34.2633 19.8764 34.0408 21.1451Z" fill="#5BDDF9"/>
<path d="M22.5 12.5C22.0398 12.5 21.6666 12.8731 21.6666 13.3333V20.4883L19.4108 22.7442C19.2439 22.9104 19.1552 23.1397 19.1666 23.375L19.8958 37.9583C19.9132 38.2728 19.799 38.5804 19.5808 38.8075C19.1246 39.2677 18.3817 39.271 17.9214 38.8148C17.9189 38.8124 17.9165 38.8099 17.9141 38.8075C17.6958 38.5804 17.5817 38.2728 17.5991 37.9583L18.3333 23.375C18.345 23.1398 18.2565 22.9106 18.09 22.7442L15.8333 20.4883V13.3333C15.8333 12.8731 15.4602 12.5 15 12.5C14.5398 12.5 14.1666 12.8731 14.1666 13.3333V20.8333C14.1666 21.0544 14.2545 21.2663 14.4108 21.4225L16.6491 23.6617L15.9383 37.8775C15.8627 39.4303 17.0602 40.7505 18.613 40.8261C20.1658 40.9018 21.486 39.7043 21.5616 38.1515C21.5661 38.0602 21.5661 37.9689 21.5616 37.8776L20.8508 23.6618L23.0891 21.4226C23.2454 21.2664 23.3333 21.0545 23.3333 20.8334V13.3334C23.3333 12.8731 22.9602 12.5 22.5 12.5Z" fill="#5BDDF9"/>
<path d="M17.5 12.5C17.0398 12.5 16.6667 12.8731 16.6667 13.3333V20C16.6667 20.4602 17.0398 20.8333 17.5 20.8333C17.9602 20.8333 18.3334 20.4602 18.3334 20V13.3333C18.3334 12.8731 17.9602 12.5 17.5 12.5Z" fill="#5BDDF9"/>
<path d="M20 12.5C19.5398 12.5 19.1667 12.8731 19.1667 13.3333V20C19.1667 20.4602 19.5398 20.8333 20 20.8333C20.4602 20.8333 20.8334 20.4602 20.8334 20V13.3333C20.8334 12.8731 20.4602 12.5 20 12.5Z" fill="#5BDDF9"/>
<path d="M25 0C11.1929 0 0 11.1929 0 25C0 38.8071 11.1929 50 25 50C38.8071 50 50 38.8071 50 25C49.9844 11.1994 38.8006 0.015625 25 0ZM25 48.3333C12.1133 48.3333 1.66667 37.8867 1.66667 25C1.66667 12.1133 12.1133 1.66667 25 1.66667C37.8867 1.66667 48.3333 12.1133 48.3333 25C48.3186 37.8805 37.8805 48.3186 25 48.3333Z" fill="#5BDDF9"/>
<path d="M27.7051 40.6428C27.6604 40.1847 27.2528 39.8496 26.7947 39.8943C26.784 39.8954 26.7732 39.8966 26.7625 39.8981L26.7658 39.8972C25.5926 40.0335 24.4074 40.0335 23.2342 39.8972C22.7769 39.8436 22.3628 40.1708 22.3092 40.6281C22.2555 41.0854 22.5827 41.4994 23.04 41.5531C24.3411 41.705 25.6555 41.705 26.9567 41.5531C27.4147 41.5085 27.7498 41.1009 27.7051 40.6428Z" fill="#5BDDF9"/>
<path d="M37.75 14.2616C37.4543 13.909 36.9287 13.8629 36.5761 14.1587C36.5749 14.1597 36.5738 14.1607 36.5725 14.1616C36.2207 14.4583 36.1759 14.9839 36.4725 15.3358C41.497 21.3004 41.1126 30.1201 35.5883 35.625C35.2623 35.9499 35.2614 36.4777 35.5863 36.8037C35.9112 37.1298 36.439 37.1307 36.765 36.8058C42.9043 30.6899 43.3324 20.8897 37.75 14.2616Z" fill="#5BDDF9"/>
<path d="M19.4164 11.0151C19.4158 11.0151 19.4152 11.015 19.4146 11.015C19.4136 11.015 19.4127 11.0151 19.4116 11.0151H19.4164Z" fill="#5BDDF9"/>
<path d="M28.9308 8.79916C25.674 8.01864 22.2584 8.22843 19.1216 9.40166C18.6908 9.56364 18.473 10.0443 18.635 10.475C18.7571 10.7997 19.0675 11.0146 19.4142 11.0149C19.5139 11.0144 19.6127 10.9961 19.7058 10.9608C22.5306 9.90447 25.6064 9.71582 28.5391 10.4192C28.9865 10.5273 29.4369 10.2524 29.545 9.80499C29.6531 9.3576 29.3782 8.90728 28.9308 8.79916Z" fill="#5BDDF9"/>
<path d="M14.3741 35.5833C11.5648 32.7788 9.99035 28.9695 9.99993 24.9999C9.9917 21.8285 10.9963 18.7372 12.8674 16.1766C13.144 15.8087 13.0699 15.2863 12.702 15.0097C12.3341 14.7332 11.8117 14.8072 11.5351 15.1752C11.5302 15.1817 11.5255 15.1883 11.5208 15.1949C6.70275 21.8187 7.4117 30.9615 13.1933 36.7633C13.5191 37.0893 14.0476 37.0895 14.3737 36.7637C14.6997 36.4379 14.6999 35.9093 14.3741 35.5833Z" fill="#5BDDF9"/>
</svg>
