<svg width="46" height="50" viewBox="0 0 46 50" fill="none" xmlns="http://www.w3.org/2000/svg">
<path d="M22.7167 2.67525L12.5879 0.0261014C12.5569 0.0180478 12.5259 0.01242 12.4949 0.00795657C12.487 0.00688922 12.4792 0.00621 12.4713 0.00533672C12.4457 0.00252281 12.4201 0.000970313 12.3948 0.000679219C12.391 0.000582188 12.3874 0 12.3837 0C12.3816 0 12.3796 0.000485157 12.3776 0.000485157C12.3373 0.000776251 12.2974 0.00397828 12.2584 0.0101883C12.2538 0.0109645 12.2493 0.0120319 12.2447 0.0128081C12.1663 0.0266836 12.0912 0.0520088 12.0213 0.0876193C12.0164 0.0901421 12.0115 0.0923738 12.0066 0.0949937C11.9734 0.11275 11.9417 0.132739 11.9114 0.155056C11.9071 0.158161 11.903 0.16146 11.8988 0.164662C11.8374 0.211722 11.7829 0.267709 11.7378 0.331653C11.735 0.335437 11.7321 0.339222 11.7295 0.343297C11.7084 0.374153 11.6897 0.406852 11.6732 0.441104C11.6703 0.447217 11.6677 0.45333 11.6649 0.459443C11.6493 0.494375 11.6353 0.530276 11.6249 0.568312C11.6248 0.568604 11.6246 0.568895 11.6245 0.569186L10.8108 3.53563C10.6986 3.9451 10.9472 4.3668 11.3665 4.47625C11.4325 4.49362 11.5017 4.50187 11.5699 4.50187C11.9254 4.50187 12.2378 4.2686 12.3291 3.93278L12.9402 1.70785L21.5498 3.95965L19.2658 12.2808H10.0382L11.5154 6.89912C11.57 6.70157 11.5417 6.49489 11.4368 6.31674C11.3319 6.13966 11.1621 6.01167 10.9586 5.95947C10.8926 5.9421 10.8233 5.93288 10.7552 5.93288C10.3997 5.93288 10.0882 6.16731 9.99598 6.50197L8.27492 12.7721C8.25534 12.8217 8.24102 12.8737 8.23228 12.9276L7.28219 16.389C7.28209 16.3894 7.28199 16.3898 7.28189 16.39C6.86559 17.9082 7.0795 19.4937 7.88457 20.8547C8.55712 21.992 9.5759 22.8573 10.7996 23.349L7.00297 37.1809L3.71403 39.0342L0.990204 38.3218C0.571123 38.2118 0.139418 38.4551 0.0269939 38.8646C-0.0854303 39.2742 0.163573 39.6952 0.583151 39.8049L12.738 42.984C12.8062 43.0019 12.8746 43.0104 12.9421 43.0104C13.2893 43.0104 13.6071 42.7842 13.7012 42.4412C13.8136 42.0316 13.5646 41.6106 13.145 41.501L10.4213 40.7886L8.52233 37.5782L12.3188 23.7478C12.5846 23.7826 12.8509 23.8 13.1164 23.8C14.1611 23.8 15.1922 23.5326 16.1213 23.009C17.5161 22.2229 18.5138 20.9538 18.9306 19.4353C18.9307 19.435 18.9307 19.4348 18.9308 19.4346L23.2729 3.61548C23.3853 3.20592 23.1364 2.7849 22.7167 2.67525ZM5.86272 39.5963L7.39044 38.7354L8.27253 40.2267L5.86272 39.5963ZM17.411 19.0385C17.4109 19.0386 17.4109 19.0387 17.4109 19.0387C17.1027 20.1607 16.3654 21.0985 15.3348 21.6793C14.3037 22.2603 13.1028 22.4146 11.953 22.1138C10.8031 21.813 9.842 21.0933 9.24688 20.0869C8.65176 19.0808 8.49361 17.9088 8.80156 16.7865C8.80165 16.7864 8.80165 16.7862 8.80175 16.7861L9.61695 13.8162H18.8445L17.411 19.0385Z" fill="#46E5E5"/>
<path d="M45.973 45.5339C45.8605 45.1244 45.4293 44.881 45.0098 44.9911L42.2857 45.7036L38.9971 43.85L35.2 30.0179C37.9535 28.9067 39.5091 25.9413 38.7176 23.0579C38.7174 23.0574 38.7172 23.0568 38.7171 23.0562L35.7323 12.1827C35.6401 11.847 35.3276 11.6136 34.9731 11.6136C34.9039 11.6136 34.8357 11.6218 34.7686 11.6392C34.5662 11.6924 34.3963 11.8193 34.2915 11.9975C34.1866 12.1745 34.1584 12.3813 34.2129 12.5799L34.9791 15.3714H25.7518L24.45 10.629L33.0596 8.37714L33.3991 9.61341C33.4904 9.94807 33.8028 10.1825 34.1573 10.1825C34.2265 10.1825 34.2948 10.1733 34.3618 10.1559C34.7812 10.0464 35.0297 9.62467 34.9175 9.21627L34.3754 7.23867C34.375 7.23712 34.3742 7.23566 34.3736 7.23411C34.3634 7.19782 34.3501 7.16337 34.3352 7.1297C34.3322 7.1232 34.3296 7.1166 34.3264 7.1102C34.3099 7.07605 34.2912 7.04335 34.2701 7.01239C34.2676 7.0088 34.2649 7.00541 34.2626 7.00182C34.2166 6.93681 34.1613 6.87985 34.0987 6.8323C34.0959 6.83007 34.0931 6.82794 34.0903 6.8258C34.0588 6.80251 34.0257 6.78155 33.9911 6.76312C33.9881 6.76157 33.9851 6.76021 33.9821 6.75875C33.9102 6.72159 33.8324 6.69539 33.7512 6.68142C33.7487 6.68103 33.7465 6.68045 33.744 6.68006C33.7032 6.67346 33.6618 6.67016 33.6198 6.66997C33.6186 6.66997 33.6173 6.66968 33.6161 6.66968C33.6139 6.66968 33.6118 6.67007 33.6095 6.67007C33.582 6.67026 33.5545 6.67201 33.5268 6.67511C33.5195 6.67589 33.5124 6.67647 33.5052 6.67754C33.4796 6.68113 33.454 6.68608 33.4284 6.69209C33.4228 6.69335 33.4172 6.69394 33.4117 6.69529C33.4096 6.69588 33.4077 6.69665 33.4056 6.69724L23.2832 9.34483C22.8638 9.45448 22.6148 9.8755 22.7271 10.2851L27.0697 26.1054C27.0697 26.1056 27.0698 26.1057 27.0699 26.1059C27.7912 28.7317 30.2333 30.4679 32.895 30.4679C33.1554 30.4679 33.4179 30.4511 33.6811 30.4171L37.4777 44.2476L35.5788 47.4581L32.8548 48.1706C32.4352 48.2803 32.1863 48.7012 32.2988 49.1108C32.3929 49.4538 32.7106 49.68 33.0579 49.68C33.1253 49.68 33.1938 49.6714 33.262 49.6536L42.374 47.2702C42.3744 47.27 42.3748 47.2699 42.3752 47.2698L45.4169 46.4743C45.8365 46.3644 46.0854 45.9435 45.973 45.5339ZM28.5888 25.7071L28.5887 25.7068L26.1732 16.9071H35.4006L37.1982 23.4558C37.1983 23.4564 37.1986 23.4569 37.1988 23.4574C37.8333 25.7738 36.4198 28.1628 34.0469 28.7835C31.6733 29.4045 29.2249 28.0243 28.5888 25.7071ZM37.7275 46.8959L38.6096 45.4047L40.1371 46.2656L37.7275 46.8959Z" fill="#46E5E5"/>
</svg>
