<svg width="45" height="50" viewBox="0 0 45 50" fill="none" xmlns="http://www.w3.org/2000/svg">
<path d="M25.1243 44.0715C24.5707 44.0715 24.1213 44.509 24.1213 45.048C24.1213 45.5871 24.5707 46.0246 25.1243 46.0246C25.6779 46.0246 26.1273 45.5871 26.1273 45.048C26.1273 44.509 25.6779 44.0715 25.1243 44.0715Z" fill="#5BDDF9"/>
<path d="M11.0327 19.5598C10.4788 19.5598 10.0297 19.997 10.0297 20.5363V39.1887C10.0297 39.728 10.4788 40.1652 11.0327 40.1652C11.5866 40.1652 12.0357 39.728 12.0357 39.1887V20.5363C12.0357 19.997 11.5866 19.5598 11.0327 19.5598Z" fill="#5BDDF9"/>
<path d="M19.0564 19.5598C18.5024 19.5598 18.0534 19.997 18.0534 20.5363V39.1887C18.0534 39.728 18.5024 40.1652 19.0564 40.1652C19.6103 40.1652 20.0593 39.728 20.0593 39.1887V20.5363C20.0593 19.997 19.6103 19.5598 19.0564 19.5598Z" fill="#5BDDF9"/>
<path d="M39.2159 15.7227H34.2011V12.7677C35.7733 11.6201 36.5205 9.68047 36.0774 7.76533C35.6628 5.96943 34.1403 4.50381 32.2894 4.11836C31.3054 3.91279 30.3143 3.98555 29.4114 4.31982C28.5059 2.92988 26.9158 2.05078 25.1744 2.05078C24.5181 2.05078 23.8767 2.17471 23.2836 2.41318C21.6049 0.871289 19.3916 0 17.1006 0C14.07 0 11.2436 1.50322 9.57531 3.96279C4.33281 3.68037 0 7.73008 0 12.7236V24.4424C0 26.0578 1.37226 27.3721 3.05904 27.3721C3.42904 27.3721 3.78359 27.3065 4.11216 27.1872V45.1172C4.11216 47.8096 6.36181 50 9.12698 50H29.1863C31.9515 50 34.2011 47.8096 34.2011 45.1172V42.1875H39.2159C41.9811 42.1875 44.2308 39.9971 44.2308 37.3047V20.6055C44.2308 17.9131 41.9811 15.7227 39.2159 15.7227ZM32.1952 44.1406H29.1351C28.5812 44.1406 28.1322 44.5778 28.1322 45.1172C28.1322 45.6565 28.5812 46.084 29.1351 46.084H32.0227C31.6087 47.2206 30.4938 48.0469 29.1863 48.0469H9.12698C7.81952 48.0469 6.70462 47.2304 6.2906 46.0938H21.1134C21.6674 46.0938 22.1164 45.6565 22.1164 45.1172C22.1164 44.5778 21.6674 44.1406 21.1134 44.1406H6.11809V24.4209V17.5299C8.37105 17.1987 10.3219 15.8172 11.3475 13.7696C11.5568 13.7696 11.7411 13.8401 11.88 13.9729C13.012 15.0566 14.5098 15.6534 16.0976 15.6534C17.7433 15.6534 19.2795 15.0191 20.4239 13.8668C20.4851 13.8051 20.5716 13.7696 20.6611 13.7696C22.2224 13.7696 23.244 14.0943 23.6978 14.7346C24.0718 15.2624 24.0715 15.9958 24.0712 16.5852V20.5362C24.0712 21.8093 24.9097 22.8948 26.0771 23.2979V39.1886C26.0771 39.7279 26.5261 40.1651 27.0801 40.1651C27.634 40.1651 28.083 39.7279 28.083 39.1886V23.2979C29.2504 22.8947 30.089 21.8093 30.089 20.5361V13.6549C30.7915 13.7914 31.5086 13.7923 32.1952 13.6556V44.1406ZM29.5406 11.4206C29.2297 11.2666 28.859 11.281 28.5615 11.4586C28.2642 11.6361 28.0829 11.9514 28.0829 12.291V20.5361C28.0829 21.0746 27.633 21.5127 27.08 21.5127C26.5269 21.5127 26.077 21.0746 26.077 20.5361V16.5857C26.0773 15.8166 26.0778 14.6542 25.3487 13.6253C24.4983 12.425 22.9212 11.8164 20.6611 11.8164C20.0302 11.8164 19.4178 12.0692 18.9812 12.5097C18.2188 13.2774 17.1946 13.7002 16.0976 13.7002C15.0392 13.7002 14.0408 13.3024 13.2858 12.5794C12.771 12.0873 12.0826 11.8164 11.3475 11.8164C10.5874 11.8164 9.88091 12.2458 9.54763 12.9104C8.70694 14.5865 7.00511 15.6376 5.1065 15.6534C4.55597 15.658 4.11206 16.0938 4.11206 16.63V24.3961C4.07675 24.9712 3.6175 25.4189 3.05904 25.4189C2.48826 25.4189 2.00593 24.9717 2.00593 24.4424V12.7236C2.00593 8.95449 5.1735 5.90215 9.06751 5.90215C9.3701 5.90215 9.6743 5.9209 9.9783 5.95889C10.384 6.00957 10.7805 5.81523 10.9806 5.46807C12.2299 3.3 14.5749 1.95312 17.1006 1.95312C19.0794 1.95312 20.9873 2.79443 22.3347 4.26143C22.6613 4.61709 23.2041 4.69092 23.6184 4.43574C24.0771 4.15322 24.6152 4.00391 25.1744 4.00391C26.4512 4.00391 27.5924 4.79111 28.0141 5.9626C28.1167 6.24775 28.3492 6.4707 28.6437 6.56621C28.9381 6.66172 29.2614 6.61914 29.5192 6.45078C30.2028 6.00449 31.0371 5.85439 31.869 6.02822C32.9522 6.25381 33.878 7.14424 34.1203 8.19414C34.6912 10.6613 32.0938 12.6852 29.5406 11.4206ZM34.2011 21.582H38.213V36.3281H34.2011V21.582ZM42.2248 37.3047C42.2248 38.9201 40.875 40.2344 39.2159 40.2344H34.2011V38.2812H39.2159C39.7699 38.2812 40.2189 37.844 40.2189 37.3047V20.6055C40.2189 20.0661 39.7699 19.6289 39.2159 19.6289H34.2011V17.6758H39.2159C40.875 17.6758 42.2248 18.99 42.2248 20.6055V37.3047Z" fill="#5BDDF9"/>
</svg>
